<?xml version="1.0" encoding="UTF-8" standalone="no" ?>
<!DOCTYPE svg PUBLIC "-//W3C//DTD SVG 1.1//EN" "http://www.w3.org/Graphics/SVG/1.1/DTD/svg11.dtd">
<svg xmlns="http://www.w3.org/2000/svg" xmlns:xlink="http://www.w3.org/1999/xlink" version="1.1" width="1080" height="1080" viewBox="0 0 1080 1080" xml:space="preserve">
<desc>Created with Fabric.js 5.2.4</desc>
<defs>
</defs>
<g transform="matrix(1 0 0 1 540 540)" id="a5f7ef49-4d37-4f81-927d-3864ca1dc4ba"  >
<rect style="stroke: none; stroke-width: 1; stroke-dasharray: none; stroke-linecap: butt; stroke-dashoffset: 0; stroke-linejoin: miter; stroke-miterlimit: 4; fill: rgb(255,255,255); fill-rule: nonzero; opacity: 1; visibility: hidden;" vector-effect="non-scaling-stroke"  x="-540" y="-540" rx="0" ry="0" width="1080" height="1080" />
</g>
<g transform="matrix(1 0 0 1 540 540)" id="e183826d-c29f-4b32-b981-6a019a9110e4"  >
</g>
<g transform="matrix(1 0 0 1 540 540)" id="80ebe357-e3af-411d-ac77-e5a8e0452594"  >
<path style="stroke: rgb(50,183,47); stroke-width: 0; stroke-dasharray: none; stroke-linecap: butt; stroke-dashoffset: 0; stroke-linejoin: miter; stroke-miterlimit: 4; fill: rgb(50,183,47); fill-rule: nonzero; opacity: 1;" vector-effect="non-scaling-stroke"  transform=" translate(-256, -256)" d="M 256 48 C 141.31 48 48 141.31 48 256 C 48 370.69 141.31 464 256 464 C 370.69 464 464 370.69 464 256 C 464 141.31 370.69 48 256 48 z M 364.25 186.29 L 229.85 346.28999999999996 C 226.86697607844732 349.8430365486336 222.48865087553258 351.9263896243539 217.85 351.99999999999994 L 217.57999999999998 351.99999999999994 C 213.04462573087991 351.99835634556416 208.7230314438157 350.07199387950527 205.69 346.69999999999993 L 148.09 282.69999999999993 C 144.10789769933416 278.4764324951652 142.72568714630998 272.42739418320866 144.47819262708248 266.8934637770031 C 146.23069810785498 261.3595333707975 150.84299196504992 257.20885681301905 156.5304207937903 256.0474720710507 C 162.21784962253068 254.88608732908236 168.0881871208028 256.8961888610429 171.87 261.29999999999995 L 217.16 311.61999999999995 L 339.75 165.70999999999995 C 345.4717823333905 159.09475434188084 355.44524763770465 158.30002157917818 362.14244172529004 163.92566461274993 C 368.83963581287543 169.55130764632167 369.77833019857525 179.51225454863607 364.25 186.28999999999996 z" stroke-linecap="round" />
</g>
<g transform="matrix(NaN NaN NaN NaN 0 0)"  >
<g style=""   >
</g>
</g>
<g transform="matrix(NaN NaN NaN NaN 0 0)"  >
<g style=""   >
</g>
</g>
<g transform="matrix(NaN NaN NaN NaN 0 0)"  >
<g style=""   >
</g>
</g>
<g transform="matrix(NaN NaN NaN NaN 0 0)"  >
<g style=""   >
</g>
</g>
<g transform="matrix(NaN NaN NaN NaN 0 0)"  >
<g style=""   >
</g>
</g>
<g transform="matrix(NaN NaN NaN NaN 0 0)"  >
<g style=""   >
</g>
</g>
<g transform="matrix(NaN NaN NaN NaN 0 0)"  >
<g style=""   >
</g>
</g>
<g transform="matrix(NaN NaN NaN NaN 0 0)"  >
<g style=""   >
</g>
</g>
</svg>